<?xml version="1.0" standalone="no"?>
<!DOCTYPE svg PUBLIC "-//W3C//DTD SVG 20010904//EN"
 "http://www.w3.org/TR/2001/REC-SVG-20010904/DTD/svg10.dtd">
<svg version="1.0" xmlns="http://www.w3.org/2000/svg"
 width="1280.000000pt" height="640.000000pt" viewBox="0 0 1280.000000 640.000000"
 preserveAspectRatio="xMidYMid meet">
<metadata>
Created by potrace 1.15, written by Peter Selinger 2001-2017
</metadata>
<g transform="translate(0.000000,640.000000) scale(0.100000,-0.100000)"
fill="#000000" stroke="none">
<path d="M89 4207 c-81 -54 -106 -179 -74 -367 39 -235 159 -506 242 -545 88
-42 424 -89 793 -110 779 -46 1137 -76 1573 -130 1133 -142 1935 -377 2480
-728 225 -146 277 -167 357 -143 116 34 335 169 391 240 47 60 40 71 -163 271
-198 194 -243 254 -214 283 14 15 43 15 318 -2 167 -9 447 -24 623 -31 176 -8
417 -21 535 -29 438 -31 1055 -56 1955 -81 1018 -28 1573 -63 2020 -126 418
-59 1060 -174 1274 -227 l113 -29 33 46 c46 63 60 118 60 241 0 194 -32 253
-160 292 l-70 22 50 7 c28 4 130 15 228 24 230 22 284 34 319 74 20 22 28 42
28 69 0 85 -68 255 -131 326 -52 60 -130 68 -385 41 -542 -57 -870 -70 -1674
-68 l-725 1 -175 27 c-191 29 -414 70 -430 80 -24 15 -4 45 85 130 58 56 95
99 95 111 0 31 -74 176 -110 218 -75 85 -135 88 -425 23 -447 -102 -823 -154
-1367 -192 -680 -46 -2142 -55 -2738 -15 -85 6 -263 22 -395 36 -132 14 -343
29 -470 34 -126 5 -324 16 -440 24 -115 9 -327 23 -470 31 -545 32 -1254 83
-1875 135 -531 45 -760 60 -911 60 -125 0 -139 -2 -170 -23z"/>
</g>
</svg>
